<svg width="38" height="38" viewBox="0 0 38 38" fill="none" xmlns="http://www.w3.org/2000/svg">
<g filter="url(#filter0_i)">
<path d="M5.7 0C4.18827 0 2.73845 0.632141 1.66949 1.75736C0.600534 2.88258 0 4.4087 0 6V32C0 33.5913 0.600534 35.1174 1.66949 36.2426C2.73845 37.3679 4.18827 38 5.7 38H30.4C31.9117 38 33.3616 37.3679 34.4305 36.2426C35.4995 35.1174 36.1 33.5913 36.1 32V28.46C36.6963 27.8986 37.1737 27.2113 37.501 26.4429C37.8284 25.6745 37.9984 24.8421 38 24V14C37.9984 13.1579 37.8284 12.3255 37.501 11.5571C37.1737 10.7887 36.6963 10.1014 36.1 9.54V6C36.1 4.4087 35.4995 2.88258 34.4305 1.75736C33.3616 0.632141 31.9117 0 30.4 0H5.7ZM5.7 2H30.4C31.4078 2 32.3744 2.42143 33.087 3.17157C33.7996 3.92172 34.2 4.93913 34.2 6V8.348C33.59 8.11924 32.9475 8.00156 32.3 8H20.9C19.3883 8 17.9384 8.63214 16.8695 9.75736C15.8005 10.8826 15.2 12.4087 15.2 14V24C15.2 25.5913 15.8005 27.1174 16.8695 28.2426C17.9384 29.3679 19.3883 30 20.9 30H32.3C32.9475 29.9984 33.59 29.8808 34.2 29.652V32C34.2 33.0609 33.7996 34.0783 33.087 34.8284C32.3744 35.5786 31.4078 36 30.4 36H5.7C4.69218 36 3.72563 35.5786 3.01299 34.8284C2.30036 34.0783 1.9 33.0609 1.9 32V6C1.9 4.93913 2.30036 3.92172 3.01299 3.17157C3.72563 2.42143 4.69218 2 5.7 2ZM20.9 10H32.3C33.3078 10 34.2744 10.4214 34.987 11.1716C35.6996 11.9217 36.1 12.9391 36.1 14V24C36.1 25.0609 35.6996 26.0783 34.987 26.8284C34.2744 27.5786 33.3078 28 32.3 28H20.9C19.8922 28 18.9256 27.5786 18.213 26.8284C17.5004 26.0783 17.1 25.0609 17.1 24V14C17.1 12.9391 17.5004 11.9217 18.213 11.1716C18.9256 10.4214 19.8922 10 20.9 10ZM25.65 14C24.3902 14 23.182 14.5268 22.2912 15.4645C21.4004 16.4021 20.9 17.6739 20.9 19C20.9 20.3261 21.4004 21.5979 22.2912 22.5355C23.182 23.4732 24.3902 24 25.65 24C26.9098 24 28.118 23.4732 29.0088 22.5355C29.8996 21.5979 30.4 20.3261 30.4 19C30.4 17.6739 29.8996 16.4021 29.0088 15.4645C28.118 14.5268 26.9098 14 25.65 14ZM25.65 16C26.0243 16 26.3949 16.0776 26.7406 16.2284C27.0864 16.3791 27.4006 16.6001 27.6653 16.8787C27.9299 17.1573 28.1398 17.488 28.2831 17.8519C28.4263 18.2159 28.5 18.606 28.5 19C28.5 19.394 28.4263 19.7841 28.2831 20.1481C28.1398 20.512 27.9299 20.8427 27.6653 21.1213C27.4006 21.3999 27.0864 21.6209 26.7406 21.7716C26.3949 21.9224 26.0243 22 25.65 22C24.8941 22 24.1692 21.6839 23.6347 21.1213C23.1003 20.5587 22.8 19.7956 22.8 19C22.8 18.2044 23.1003 17.4413 23.6347 16.8787C24.1692 16.3161 24.8941 16 25.65 16Z" fill="#83E8BA"/>
</g>
<defs>
<filter id="filter0_i" x="0" y="0" width="38" height="42" filterUnits="userSpaceOnUse" color-interpolation-filters="sRGB">
<feFlood flood-opacity="0" result="BackgroundImageFix"/>
<feBlend mode="normal" in="SourceGraphic" in2="BackgroundImageFix" result="shape"/>
<feColorMatrix in="SourceAlpha" type="matrix" values="0 0 0 0 0 0 0 0 0 0 0 0 0 0 0 0 0 0 127 0" result="hardAlpha"/>
<feOffset dy="4"/>
<feGaussianBlur stdDeviation="2"/>
<feComposite in2="hardAlpha" operator="arithmetic" k2="-1" k3="1"/>
<feColorMatrix type="matrix" values="0 0 0 0 0 0 0 0 0 0 0 0 0 0 0 0 0 0 0.25 0"/>
<feBlend mode="normal" in2="shape" result="effect1_innerShadow"/>
</filter>
</defs>
</svg>
