<svg width="34" height="34" viewBox="0 0 34 34" fill="none" xmlns="http://www.w3.org/2000/svg">
<path d="M9.25 33.5C9.25 31.6435 9.9875 29.863 11.3003 28.5503C12.613 27.2375 14.3935 26.5 16.25 26.5V24.75C14.233 24.7498 12.278 24.053 10.7156 22.7775C9.1531 21.502 8.07904 19.7261 7.675 17.75H5.75C4.35761 17.75 3.02226 17.1969 2.03769 16.2123C1.05312 15.2277 0.5 13.8924 0.5 12.5V3.75H4C5.344 3.75 6.5725 4.25575 7.5 5.087V0.25H26.75V5.087C27.7116 4.22446 28.9583 3.74822 30.25 3.75H33.75V12.5C33.75 13.8924 33.1969 15.2277 32.2123 16.2123C31.2277 17.1969 29.8924 17.75 28.5 17.75H26.575C26.171 19.7261 25.0969 21.502 23.5344 22.7775C21.972 24.053 20.017 24.7498 18 24.75V26.5C19.8565 26.5 21.637 27.2375 22.9498 28.5503C24.2625 29.863 25 31.6435 25 33.5H9.25ZM18 28.25H16.25C15.1639 28.2497 14.1045 28.5861 13.2175 29.2129C12.3306 29.8397 11.6598 30.7261 11.2975 31.75H22.9525C22.5902 30.7261 21.9194 29.8397 21.0325 29.2129C20.1455 28.5861 19.0861 28.2497 18 28.25ZM25 2H9.25V16C9.25 17.8565 9.9875 19.637 11.3003 20.9498C12.613 22.2625 14.3935 23 16.25 23H18C19.8565 23 21.637 22.2625 22.9498 20.9498C24.2625 19.637 25 17.8565 25 16V2ZM32 12.5V5.5H30.25C29.3217 5.5 28.4315 5.86875 27.7751 6.52513C27.1188 7.1815 26.75 8.07174 26.75 9V16H28.5C29.4283 16 30.3185 15.6313 30.9749 14.9749C31.6313 14.3185 32 13.4283 32 12.5ZM2.25 12.5C2.25 13.4283 2.61875 14.3185 3.27513 14.9749C3.9315 15.6313 4.82174 16 5.75 16H7.5V9C7.5 8.07174 7.13125 7.1815 6.47487 6.52513C5.8185 5.86875 4.92826 5.5 4 5.5H2.25V12.5Z" fill="#4C4C9D"/>
</svg>
