<svg width="29" height="35" viewBox="0 0 29 35" fill="none" xmlns="http://www.w3.org/2000/svg">
<path d="M9 0.875H23.625C24.9179 0.875 26.1579 1.38861 27.0721 2.30285C27.9864 3.21709 28.5 4.45707 28.5 5.75V26.875C28.5 28.1679 27.9864 29.4079 27.0721 30.3221C26.1579 31.2364 24.9179 31.75 23.625 31.75H9C7.70707 31.75 6.46709 31.2364 5.55285 30.3221C4.63861 29.4079 4.125 28.1679 4.125 26.875V5.75C4.125 4.45707 4.63861 3.21709 5.55285 2.30285C6.46709 1.38861 7.70707 0.875 9 0.875ZM9 2.5C8.13805 2.5 7.3114 2.84241 6.7019 3.4519C6.09241 4.0614 5.75 4.88805 5.75 5.75V26.875C5.75 27.737 6.09241 28.5636 6.7019 29.1731C7.3114 29.7826 8.13805 30.125 9 30.125H23.625C24.487 30.125 25.3136 29.7826 25.9231 29.1731C26.5326 28.5636 26.875 27.737 26.875 26.875V5.75C26.875 4.88805 26.5326 4.0614 25.9231 3.4519C25.3136 2.84241 24.487 2.5 23.625 2.5H18.75V13.3875L13.875 9.975L9 13.3875V2.5ZM17.125 2.5H10.625V10.2675L13.875 7.99088L17.125 10.2659V2.5ZM9 35C6.84512 35 4.77849 34.144 3.25476 32.6202C1.73102 31.0965 0.875 29.0299 0.875 26.875V7.375H2.5V26.875C2.5 28.5989 3.18482 30.2522 4.40381 31.4712C5.62279 32.6902 7.27609 33.375 9 33.375H22V35H9Z" fill="#F7996E"/>
</svg>
