<svg width="24" height="24" viewBox="0 0 24 24" fill="none" xmlns="http://www.w3.org/2000/svg">
<path d="M16.2878 7.71224C15.9923 7.41675 15.5138 7.41675 15.219 7.71224L11.9962 10.935L8.81847 7.75726C8.52522 7.464 8.05047 7.464 7.758 7.75726C7.46475 8.05051 7.46475 8.52526 7.758 8.81773L10.9358 11.9955L7.73627 15.195C7.44078 15.4905 7.44078 15.9689 7.73627 16.2637C8.03176 16.5585 8.51027 16.5585 8.80502 16.2637L12.0045 13.0642L15.1823 16.242C15.4755 16.5352 15.9503 16.5352 16.2428 16.242C16.536 15.9487 16.536 15.474 16.2428 15.1815L13.065 12.0037L16.2878 8.78098C16.5833 8.48624 16.5833 8.00702 16.2878 7.71224ZM12 0C5.37224 0 0 5.37224 0 12C0 18.6278 5.37224 24 12 24C18.627 24 24 18.627 24 12C24 5.37302 18.6278 0 12 0ZM12 22.5C6.20098 22.5 1.5 17.799 1.5 12C1.5 6.20098 6.20098 1.5 12 1.5C17.799 1.5 22.5 6.20098 22.5 12C22.5 17.799 17.799 22.5 12 22.5Z" fill="black"/>
</svg>
