<svg width="40" height="40" viewBox="0 0 40 40" fill="none" xmlns="http://www.w3.org/2000/svg">
<path d="M36.6467 0H11.4172C11.2054 0 11.0023 0.0877974 10.8526 0.244078C10.7029 0.400358 10.6188 0.61232 10.6188 0.833333C10.6188 1.05435 10.7029 1.26631 10.8526 1.42259C11.0023 1.57887 11.2054 1.66667 11.4172 1.66667C11.8829 1.66722 12.3293 1.86055 12.6586 2.20425C12.9879 2.54794 13.1731 3.01394 13.1737 3.5V7.5C13.1737 7.72101 13.2578 7.93297 13.4075 8.08926C13.5572 8.24554 13.7603 8.33333 13.9721 8.33333H39.2016C39.4133 8.33333 39.6164 8.24554 39.7662 8.08926C39.9159 7.93297 40 7.72101 40 7.5V3.5C39.999 2.57206 39.6454 1.68242 39.0167 1.02627C38.3881 0.370118 37.5358 0.00103667 36.6467 0V0Z" fill="url(#paint0_linear)"/>
<path d="M9.66068 0C8.77163 0.00103667 7.91929 0.370118 7.29064 1.02627C6.66199 1.68242 6.30838 2.57206 6.30738 3.5V36.5C6.30732 37.3364 6.02039 38.145 5.49853 38.7797C4.97667 39.4144 4.25437 39.8331 3.46235 39.96L30.0998 40C30.9891 40 31.8421 39.6313 32.4709 38.9749C33.0998 38.3185 33.4531 37.4283 33.4531 36.5V3.5C33.4541 2.57206 33.8077 1.68242 34.4363 1.02627C35.065 0.370118 35.9173 0.00103667 36.8064 0H9.66068Z" fill="url(#paint1_linear)"/>
<path d="M27.0659 36.5V34.3333C27.0659 34.0681 26.9649 33.8138 26.7853 33.6262C26.6056 33.4387 26.3619 33.3333 26.1078 33.3333H0.958084C0.703984 33.3333 0.460292 33.4387 0.280616 33.6262C0.100941 33.8138 0 34.0681 0 34.3333V36.5C0 37.4283 0.353292 38.3185 0.982157 38.9749C1.61102 39.6312 2.46394 40 3.35329 40H29.8603C29.9217 39.9998 29.9828 39.9922 30.0426 39.9773C29.2241 39.8798 28.4686 39.4716 27.9197 38.8304C27.3708 38.1892 27.067 37.3598 27.0659 36.5V36.5Z" fill="url(#paint2_linear)"/>
<path d="M20.0399 30.6667C24.6257 30.6667 28.3433 26.7865 28.3433 22C28.3433 17.2135 24.6257 13.3333 20.0399 13.3333C15.4541 13.3333 11.7365 17.2135 11.7365 22C11.7365 26.7865 15.4541 30.6667 20.0399 30.6667Z" fill="url(#paint3_linear)"/>
<path d="M19.974 17.0353C19.0426 17.0364 18.1497 17.4231 17.4911 18.1105C16.8325 18.7979 16.4621 19.7299 16.461 20.702V26.0353C16.461 26.3006 16.5619 26.5549 16.7416 26.7424C16.9213 26.93 17.165 27.0353 17.4191 27.0353C17.6732 27.0353 17.9169 26.93 18.0966 26.7424C18.2762 26.5549 18.3772 26.3006 18.3772 26.0353V24.3687H21.5708V26.0353C21.5708 26.3006 21.6717 26.5549 21.8514 26.7424C22.0311 26.93 22.2748 27.0353 22.5289 27.0353C22.783 27.0353 23.0267 26.93 23.2063 26.7424C23.386 26.5549 23.4869 26.3006 23.4869 26.0353V20.702C23.4859 19.7299 23.1154 18.7979 22.4569 18.1105C21.7983 17.4231 20.9053 17.0364 19.974 17.0353V17.0353ZM18.3772 22.3687V20.702C18.3772 20.26 18.5454 19.836 18.8449 19.5235C19.1443 19.2109 19.5505 19.0353 19.974 19.0353C20.3975 19.0353 20.8036 19.2109 21.1031 19.5235C21.4025 19.836 21.5708 20.26 21.5708 20.702V22.3687H18.3772Z" fill="#FAEEEE"/>
<path d="M30.3393 7.66667H28.7425V6C28.7425 5.73478 28.6416 5.48043 28.4619 5.29289C28.2822 5.10536 28.0385 5 27.7844 5C27.5303 5 27.2866 5.10536 27.107 5.29289C26.9273 5.48043 26.8263 5.73478 26.8263 6V7.66667H25.2295C24.9754 7.66667 24.7317 7.77202 24.5521 7.95956C24.3724 8.1471 24.2715 8.40145 24.2715 8.66667C24.2715 8.93188 24.3724 9.18624 24.5521 9.37377C24.7317 9.56131 24.9754 9.66667 25.2295 9.66667H26.8263V11.3333C26.8263 11.5986 26.9273 11.8529 27.107 12.0404C27.2866 12.228 27.5303 12.3333 27.7844 12.3333C28.0385 12.3333 28.2822 12.228 28.4619 12.0404C28.6416 11.8529 28.7425 11.5986 28.7425 11.3333V9.66667H30.3393C30.5934 9.66667 30.8371 9.56131 31.0168 9.37377C31.1965 9.18624 31.2974 8.93188 31.2974 8.66667C31.2974 8.40145 31.1965 8.1471 31.0168 7.95956C30.8371 7.77202 30.5934 7.66667 30.3393 7.66667V7.66667Z" fill="#D97779"/>
<path d="M22.5948 7H9.82036C9.56626 7 9.32257 6.89464 9.14289 6.70711C8.96321 6.51957 8.86227 6.26522 8.86227 6C8.86227 5.73478 8.96321 5.48043 9.14289 5.29289C9.32257 5.10536 9.56626 5 9.82036 5H22.5948C22.8489 5 23.0926 5.10536 23.2723 5.29289C23.452 5.48043 23.5529 5.73478 23.5529 6C23.5529 6.26522 23.452 6.51957 23.2723 6.70711C23.0926 6.89464 22.8489 7 22.5948 7V7Z" fill="#F9CD55"/>
<path d="M15.5689 11H9.82036C9.56626 11 9.32257 10.8946 9.14289 10.7071C8.96321 10.5196 8.86227 10.2652 8.86227 10C8.86227 9.73478 8.96321 9.48043 9.14289 9.29289C9.32257 9.10536 9.56626 9 9.82036 9H15.5689C15.823 9 16.0667 9.10536 16.2463 9.29289C16.426 9.48043 16.5269 9.73478 16.5269 10C16.5269 10.2652 16.426 10.5196 16.2463 10.7071C16.0667 10.8946 15.823 11 15.5689 11V11Z" fill="#F9CD55"/>
<defs>
<linearGradient id="paint0_linear" x1="10.6188" y1="4.16667" x2="40" y2="4.16667" gradientUnits="userSpaceOnUse">
<stop offset="0.011" stop-color="#F8C73F"/>
<stop offset="1" stop-color="#FADA7F"/>
</linearGradient>
<linearGradient id="paint1_linear" x1="3.46235" y1="20" x2="36.9552" y2="20" gradientUnits="userSpaceOnUse">
<stop offset="0.011" stop-color="#FCE6AA"/>
<stop offset="1" stop-color="#FDF3D4"/>
</linearGradient>
<linearGradient id="paint2_linear" x1="150.213" y1="3073.33" x2="11454.7" y2="3073.33" gradientUnits="userSpaceOnUse">
<stop offset="0.011" stop-color="#F8C73F"/>
<stop offset="1" stop-color="#FADA7F"/>
</linearGradient>
<linearGradient id="paint3_linear" x1="14.1712" y1="28.1254" x2="26.4109" y2="16.3988" gradientUnits="userSpaceOnUse">
<stop stop-color="#D46669"/>
<stop offset="1" stop-color="#DD888A"/>
</linearGradient>
</defs>
</svg>
