<svg width="55" height="39" viewBox="0 0 55 39" fill="none" xmlns="http://www.w3.org/2000/svg">
<path d="M5.89286 0C2.66161 0 0 2.64225 0 5.85V33.15C0 36.3577 2.66161 39 5.89286 39H49.1071C52.3384 39 55 36.3577 55 33.15V5.85C55 2.64225 52.3384 0 49.1071 0H5.89286ZM5.89286 3.9H49.1071C50.2189 3.9 51.0714 4.7463 51.0714 5.85V33.15C51.0714 34.2537 50.2189 35.1 49.1071 35.1H5.89286C4.78107 35.1 3.92857 34.2537 3.92857 33.15V5.85C3.92857 4.7463 4.78107 3.9 5.89286 3.9ZM17.6786 7.8C13.3571 7.8 9.82143 11.31 9.82143 15.6C9.82143 17.7704 10.7584 19.7281 12.2159 21.1458C10.8788 22.0415 9.78272 23.2482 9.02301 24.6607C8.2633 26.0732 7.86305 27.6488 7.85714 29.25H11.7857C11.7857 25.9974 14.4021 23.4 17.6786 23.4C20.955 23.4 23.5714 25.9974 23.5714 29.25H27.5C27.4941 27.6488 27.0938 26.0732 26.3341 24.6607C25.5744 23.2482 24.4783 22.0415 23.1413 21.1458C24.5988 19.7281 25.5357 17.7723 25.5357 15.6C25.5357 11.31 22 7.8 17.6786 7.8ZM31.4286 9.75V13.65H47.1429V9.75H31.4286ZM17.6786 11.7C19.8727 11.7 21.6071 13.4219 21.6071 15.6C21.6071 17.7782 19.8727 19.5 17.6786 19.5C15.4845 19.5 13.75 17.7782 13.75 15.6C13.75 13.4219 15.4845 11.7 17.6786 11.7ZM31.4286 17.55V21.45H47.1429V17.55H31.4286ZM31.4286 25.35V29.25H41.25V25.35H31.4286Z" fill="#08BDBA"/>
</svg>
