<svg width="149" height="149" viewBox="0 0 149 149" fill="none" xmlns="http://www.w3.org/2000/svg">
<path d="M31.0417 18.625H111.75C116.69 18.625 121.427 20.5873 124.92 24.0801C128.413 27.573 130.375 32.3103 130.375 37.25V117.958C130.375 122.898 128.413 127.635 124.92 131.128C121.427 134.621 116.69 136.583 111.75 136.583H31.0417C26.102 136.583 21.3647 134.621 17.8718 131.128C14.3789 127.635 12.4167 122.898 12.4167 117.958V37.25C12.4167 32.3103 14.3789 27.573 17.8718 24.0801C21.3647 20.5873 26.102 18.625 31.0417 18.625ZM31.0417 24.8333C27.7486 24.8333 24.5903 26.1415 22.2618 28.4701C19.9332 30.7987 18.625 33.9569 18.625 37.25V109.18L45.2774 82.5274L60.7982 98.0482L91.8399 67.0065L124.167 99.3333V37.25C124.167 33.9569 122.858 30.7987 120.53 28.4701C118.201 26.1415 115.043 24.8333 111.75 24.8333H31.0417ZM60.7982 106.827L45.2774 91.306L18.625 117.958C18.625 121.251 19.9332 124.41 22.2618 126.738C24.5903 129.067 27.7486 130.375 31.0417 130.375H111.75C115.043 130.375 118.201 129.067 120.53 126.738C122.858 124.41 124.167 121.251 124.167 117.958V108.112L91.8399 75.7851L60.7982 106.827ZM46.5625 37.25C50.6789 37.25 54.6267 38.8852 57.5374 41.7959C60.4481 44.7067 62.0833 48.6545 62.0833 52.7708C62.0833 56.8872 60.4481 60.835 57.5374 63.7457C54.6267 66.6564 50.6789 68.2917 46.5625 68.2917C42.4461 68.2917 38.4983 66.6564 35.5876 63.7457C32.6769 60.835 31.0417 56.8872 31.0417 52.7708C31.0417 48.6545 32.6769 44.7067 35.5876 41.7959C38.4983 38.8852 42.4461 37.25 46.5625 37.25ZM46.5625 43.4583C44.0927 43.4583 41.724 44.4395 39.9776 46.1859C38.2311 47.9323 37.25 50.301 37.25 52.7708C37.25 55.2407 38.2311 57.6093 39.9776 59.3558C41.724 61.1022 44.0927 62.0833 46.5625 62.0833C49.0323 62.0833 51.401 61.1022 53.1474 59.3558C54.8939 57.6093 55.875 55.2407 55.875 52.7708C55.875 50.301 54.8939 47.9323 53.1474 46.1859C51.401 44.4395 49.0323 43.4583 46.5625 43.4583Z" fill="#712F79"/>
</svg>
