<svg width="70" height="70" viewBox="0 0 70 70" fill="none" xmlns="http://www.w3.org/2000/svg">
<path d="M35 0C28.0777 0 21.3108 2.05271 15.5551 5.89856C9.79934 9.74441 5.3133 15.2107 2.66423 21.6061C0.0151649 28.0015 -0.677952 35.0388 0.672531 41.8282C2.02301 48.6175 5.35644 54.8539 10.2513 59.7487C15.1461 64.6436 21.3825 67.977 28.1719 69.3275C34.9612 70.678 41.9985 69.9848 48.3939 67.3358C54.7893 64.6867 60.2556 60.2007 64.1015 54.445C67.9473 48.6892 70 41.9223 70 35C70 25.7174 66.3125 16.815 59.7487 10.2513C53.185 3.68749 44.2826 0 35 0ZM55 57.2975V55.7775C55.0695 52.3685 53.7992 49.0682 51.4619 46.5856C49.1247 44.103 45.907 42.6361 42.5 42.5H27.5C24.0959 42.6368 20.8815 44.1044 18.5485 46.587C16.2154 49.0697 14.9502 52.369 15.025 55.775C15.025 55.8025 15 55.83 15 55.8575V57.32C10.4648 53.2717 7.26586 47.9416 5.82668 42.0351C4.38749 36.1287 4.77591 29.9245 6.94051 24.2437C9.1051 18.5629 12.9438 13.6733 17.9485 10.2223C22.9533 6.77122 28.888 4.92137 34.9673 4.91757C41.0465 4.91377 46.9836 6.7562 51.9926 10.201C57.0016 13.6458 60.8465 18.5305 63.0182 24.2086C65.1899 29.8867 65.586 36.0905 64.1542 41.9987C62.7224 47.9069 59.5302 53.241 55 57.295V57.2975Z" fill="white"/>
<path d="M35 12.5C32.5277 12.5 30.111 13.2331 28.0554 14.6066C25.9998 15.9801 24.3976 17.9324 23.4515 20.2165C22.5054 22.5005 22.2579 25.0139 22.7402 27.4386C23.2225 29.8634 24.413 32.0907 26.1612 33.8388C27.9093 35.587 30.1366 36.7775 32.5614 37.2598C34.9861 37.7421 37.4995 37.4946 39.7836 36.5485C42.0676 35.6024 44.0199 34.0002 45.3934 31.9446C46.7669 29.889 47.5 27.4723 47.5 25C47.5 21.6848 46.183 18.5054 43.8388 16.1612C41.4946 13.817 38.3152 12.5 35 12.5Z" fill="white"/>
</svg>
