<svg width="63" height="64" viewBox="0 0 63 64" fill="none" xmlns="http://www.w3.org/2000/svg">
<path d="M62.9412 28.5387C62.5865 18.3307 59.9039 10.1147 53.8532 5.62667C47.8025 1.13867 38.7065 -0.418663 27.2772 0.125338C22.0879 0.376004 17.4052 1.05067 13.6052 2.57067C9.68521 4.144 6.65588 6.36 4.43988 9.44534C-0.01612 15.6453 -1.39479 25.0053 -0.906786 35.792C-0.442786 46.032 2.21055 54.1333 8.33321 58.552C14.4239 62.944 24.3225 64.3387 34.7572 63.8987C44.8852 63.472 53.1119 60.7867 57.5172 54.656C61.9145 48.536 63.3172 39.5013 62.9412 28.5387ZM16.6052 39.3867H15.2852V36.552H16.6052C19.1279 36.552 20.9679 34.6 20.9679 32.1893C20.9679 29.7813 19.0159 27.8267 16.6052 27.8267H12.3412C12.2668 27.827 12.1944 27.8513 12.1349 27.896C12.0753 27.9407 12.0317 28.0033 12.0105 28.0747V43.5467H9.26388V28.0747C9.26388 26.3733 10.6425 24.9947 12.3439 24.9947H16.6079C20.5812 24.9947 23.8745 28.216 23.8745 32.1893C23.8745 36.1627 20.7999 39.3867 16.6052 39.3867ZM39.8105 39.3893H37.0265V31.976C36.9705 29.8853 34.7519 27.8027 32.3892 27.8027C29.7332 27.8027 27.7785 30.0693 27.7785 32.192C27.7785 35.1947 29.8959 36.568 32.3892 36.568H33.3705V39.3893H32.3892C28.2879 39.3867 24.9625 36.7627 24.9625 32.192C24.9625 28.464 28.2879 24.9947 32.3892 24.9947C36.0932 24.9947 39.6932 28.1013 39.8105 31.976V39.3893ZM43.3412 25.4667L46.9705 32.9013L45.3919 36.1093L40.1945 25.4693H43.3412V25.4667ZM46.7039 44.056H43.5545L52.6905 25.4667H55.8399L46.7039 44.056Z" fill="#34048A"/>
</svg>
