<svg width="33" height="39" viewBox="0 0 33 39" fill="none" xmlns="http://www.w3.org/2000/svg">
<path d="M6.25 6.375H10.9375C10.9375 4.88316 11.5301 3.45242 12.585 2.39753C13.6399 1.34264 15.0707 0.750004 16.5625 0.750004C18.0543 0.750004 19.4851 1.34264 20.54 2.39753C21.5949 3.45242 22.1875 4.88316 22.1875 6.375H26.875C28.3668 6.375 29.7976 6.96764 30.8525 8.02253C31.9074 9.07742 32.5 10.5082 32.5 12V32.625C32.5 34.1168 31.9074 35.5476 30.8525 36.6025C29.7976 37.6574 28.3668 38.25 26.875 38.25H6.25C4.75816 38.25 3.32742 37.6574 2.27252 36.6025C1.21763 35.5476 0.625 34.1168 0.625 32.625V12C0.625 10.5082 1.21763 9.07742 2.27252 8.02253C3.32742 6.96764 4.75816 6.375 6.25 6.375ZM6.25 8.25C5.25544 8.25 4.30161 8.64509 3.59835 9.34835C2.89509 10.0516 2.5 11.0054 2.5 12V32.625C2.5 33.6196 2.89509 34.5734 3.59835 35.2767C4.30161 35.9799 5.25544 36.375 6.25 36.375H26.875C27.8696 36.375 28.8234 35.9799 29.5266 35.2767C30.2299 34.5734 30.625 33.6196 30.625 32.625V12C30.625 11.0054 30.2299 10.0516 29.5266 9.34835C28.8234 8.64509 27.8696 8.25 26.875 8.25H25V13.875H8.125V8.25H6.25ZM10 12H23.125V8.25H10V12ZM16.5625 2.625C15.5679 2.625 14.6141 3.02009 13.9109 3.72335C13.2076 4.42661 12.8125 5.38044 12.8125 6.375H20.3125C20.3125 5.38044 19.9174 4.42661 19.2141 3.72335C18.5109 3.02009 17.5571 2.625 16.5625 2.625ZM6.25 17.625H26.875V19.5H6.25V17.625ZM6.25 23.25H26.875V25.125H6.25V23.25ZM6.25 28.875H23.125V30.75H6.25V28.875Z" fill="#2E6171"/>
</svg>
