<svg width="36" height="36" viewBox="0 0 36 36" fill="none" xmlns="http://www.w3.org/2000/svg">
<path d="M17.25 21C23.463 21 28.5 23.3505 28.5 26.25V30H6V26.25C6 23.3505 11.037 21 17.25 21ZM27 26.25C27 24.18 22.635 22.5 17.25 22.5C11.865 22.5 7.5 24.18 7.5 26.25V28.5H27V26.25ZM17.25 7.5C18.6424 7.5 19.9777 8.05312 20.9623 9.03769C21.9469 10.0223 22.5 11.3576 22.5 12.75C22.5 14.1424 21.9469 15.4777 20.9623 16.4623C19.9777 17.4469 18.6424 18 17.25 18C15.8576 18 14.5223 17.4469 13.5377 16.4623C12.5531 15.4777 12 14.1424 12 12.75C12 11.3576 12.5531 10.0223 13.5377 9.03769C14.5223 8.05312 15.8576 7.5 17.25 7.5ZM17.25 9C16.2554 9 15.3016 9.39509 14.5983 10.0983C13.8951 10.8016 13.5 11.7554 13.5 12.75C13.5 13.7446 13.8951 14.6984 14.5983 15.4017C15.3016 16.1049 16.2554 16.5 17.25 16.5C18.2446 16.5 19.1984 16.1049 19.9017 15.4017C20.6049 14.6984 21 13.7446 21 12.75C21 11.7554 20.6049 10.8016 19.9017 10.0983C19.1984 9.39509 18.2446 9 17.25 9Z" fill="white"/>
</svg>
