<svg width="35" height="35" viewBox="0 0 35 35" fill="none" xmlns="http://www.w3.org/2000/svg">
<path d="M16.7708 20.4167C22.8113 20.4167 27.7083 22.7019 27.7083 25.5209V29.1667H5.83334V25.5209C5.83334 22.7019 10.7304 20.4167 16.7708 20.4167ZM26.25 25.5209C26.25 23.5084 22.0063 21.875 16.7708 21.875C11.5354 21.875 7.29168 23.5084 7.29168 25.5209V27.7084H26.25V25.5209ZM16.7708 7.29169C18.1246 7.29169 19.4228 7.82945 20.38 8.78666C21.3373 9.74388 21.875 11.0421 21.875 12.3959C21.875 13.7496 21.3373 15.0478 20.38 16.005C19.4228 16.9623 18.1246 17.5 16.7708 17.5C15.4171 17.5 14.1189 16.9623 13.1617 16.005C12.2044 15.0478 11.6667 13.7496 11.6667 12.3959C11.6667 11.0421 12.2044 9.74388 13.1617 8.78666C14.1189 7.82945 15.4171 7.29169 16.7708 7.29169ZM16.7708 8.75002C15.8039 8.75002 14.8766 9.13413 14.1929 9.81786C13.5091 10.5016 13.125 11.4289 13.125 12.3959C13.125 13.3628 13.5091 14.2901 14.1929 14.9738C14.8766 15.6576 15.8039 16.0417 16.7708 16.0417C17.7378 16.0417 18.6651 15.6576 19.3488 14.9738C20.0326 14.2901 20.4167 13.3628 20.4167 12.3959C20.4167 11.4289 20.0326 10.5016 19.3488 9.81786C18.6651 9.13413 17.7378 8.75002 16.7708 8.75002V8.75002Z" fill="white"/>
</svg>
