<svg width="28" height="28" viewBox="0 0 28 28" fill="none" xmlns="http://www.w3.org/2000/svg">
<g filter="url(#filter0_d)">
<circle cx="14" cy="10" r="10" fill="#8544F9" fill-opacity="0.7"/>
</g>
<path d="M11.4326 10.124H9.7627V13H8.82031V5.89062H11.1738C11.9746 5.89062 12.5898 6.07292 13.0195 6.4375C13.4525 6.80208 13.6689 7.33268 13.6689 8.0293C13.6689 8.47201 13.5485 8.85775 13.3076 9.18652C13.07 9.5153 12.738 9.76107 12.3115 9.92383L13.9814 12.9414V13H12.9756L11.4326 10.124ZM9.7627 9.35742H11.2031C11.6686 9.35742 12.0381 9.23698 12.3115 8.99609C12.5882 8.75521 12.7266 8.43294 12.7266 8.0293C12.7266 7.58984 12.5947 7.25293 12.3311 7.01855C12.0706 6.78418 11.693 6.66536 11.1982 6.66211H9.7627V9.35742ZM19.3086 10.417C19.3086 11.221 19.1247 11.8688 18.7568 12.3604C18.389 12.8519 17.891 13.0977 17.2627 13.0977C16.6214 13.0977 16.1169 12.8942 15.749 12.4873V15.0312H14.8457V7.7168H15.6709L15.7148 8.30273C16.0827 7.84701 16.5938 7.61914 17.248 7.61914C17.8828 7.61914 18.3841 7.8584 18.752 8.33691C19.123 8.81543 19.3086 9.48112 19.3086 10.334V10.417ZM18.4053 10.3145C18.4053 9.71875 18.2783 9.24837 18.0244 8.90332C17.7705 8.55827 17.4222 8.38574 16.9795 8.38574C16.4326 8.38574 16.0225 8.62826 15.749 9.11328V11.6377C16.0192 12.1195 16.4326 12.3604 16.9893 12.3604C17.4222 12.3604 17.7656 12.1895 18.0195 11.8477C18.2767 11.5026 18.4053 10.9915 18.4053 10.3145Z" fill="white"/>
<defs>
<filter id="filter0_d" x="0" y="0" width="28" height="28" filterUnits="userSpaceOnUse" color-interpolation-filters="sRGB">
<feFlood flood-opacity="0" result="BackgroundImageFix"/>
<feColorMatrix in="SourceAlpha" type="matrix" values="0 0 0 0 0 0 0 0 0 0 0 0 0 0 0 0 0 0 127 0"/>
<feOffset dy="4"/>
<feGaussianBlur stdDeviation="2"/>
<feColorMatrix type="matrix" values="0 0 0 0 0 0 0 0 0 0 0 0 0 0 0 0 0 0 0.25 0"/>
<feBlend mode="normal" in2="BackgroundImageFix" result="effect1_dropShadow"/>
<feBlend mode="normal" in="SourceGraphic" in2="effect1_dropShadow" result="shape"/>
</filter>
</defs>
</svg>
