<svg width="24" height="24" viewBox="0 0 24 24" fill="none" xmlns="http://www.w3.org/2000/svg">
<path d="M21.75 20.6895L16.086 15.0255C17.4471 13.3915 18.1258 11.2956 17.981 9.17392C17.8362 7.05222 16.8789 5.06804 15.3084 3.63413C13.7379 2.20023 11.6751 1.427 9.54896 1.47531C7.42288 1.52362 5.39726 2.38974 3.8935 3.8935C2.38974 5.39726 1.52362 7.42288 1.47531 9.54896C1.427 11.6751 2.20023 13.7379 3.63413 15.3084C5.06804 16.8789 7.05222 17.8362 9.17392 17.981C11.2956 18.1258 13.3915 17.4471 15.0255 16.086L20.6895 21.75L21.75 20.6895ZM3 9.75C3 8.41497 3.39588 7.10993 4.13758 5.9999C4.87928 4.88986 5.93348 4.0247 7.16688 3.51381C8.40028 3.00292 9.75748 2.86924 11.0669 3.12969C12.3762 3.39014 13.579 4.03302 14.523 4.97702C15.467 5.92103 16.1098 7.12376 16.3703 8.43314C16.6307 9.74251 16.4971 11.0997 15.9862 12.3331C15.4753 13.5665 14.6101 14.6207 13.5001 15.3624C12.3901 16.1041 11.085 16.5 9.75 16.5C7.96039 16.498 6.24466 15.7862 4.97922 14.5208C3.71378 13.2553 3.00198 11.5396 3 9.75Z" fill="white"/>
</svg>
