<svg width="39" height="39" viewBox="0 0 39 39" fill="none" xmlns="http://www.w3.org/2000/svg">
<path fill-rule="evenodd" clip-rule="evenodd" d="M9.75 1.21875C9.75 0.895517 9.6216 0.585524 9.39304 0.356964C9.16448 0.128404 8.85448 0 8.53125 0C8.20802 0 7.89802 0.128404 7.66946 0.356964C7.4409 0.585524 7.3125 0.895517 7.3125 1.21875V2.4375H4.875C3.58207 2.4375 2.34209 2.95111 1.42785 3.86535C0.513615 4.77959 0 6.01957 0 7.3125L0 9.75H39V7.3125C39 6.01957 38.4864 4.77959 37.5721 3.86535C36.6579 2.95111 35.4179 2.4375 34.125 2.4375H31.6875V1.21875C31.6875 0.895517 31.5591 0.585524 31.3305 0.356964C31.102 0.128404 30.792 0 30.4688 0C30.1455 0 29.8355 0.128404 29.607 0.356964C29.3784 0.585524 29.25 0.895517 29.25 1.21875V2.4375H9.75V1.21875ZM0 12.1875H39V34.125C39 35.4179 38.4864 36.6579 37.5721 37.5721C36.6579 38.4864 35.4179 39 34.125 39H4.875C3.58207 39 2.34209 38.4864 1.42785 37.5721C0.513615 36.6579 0 35.4179 0 34.125V12.1875ZM22.7565 31.1756C20.0509 31.1756 18.72 29.3061 18.6054 27.7461H20.2703C20.3751 28.6479 21.2136 29.7448 22.8321 29.7448C24.8893 29.7448 26.0033 27.6778 26.013 24.4701H25.9472C25.5743 25.4792 24.3945 26.3957 22.5761 26.3957C20.4994 26.3957 18.4909 24.9088 18.4909 22.0813C18.4909 19.3099 20.6139 17.6719 22.8711 17.6719C25.7278 17.6719 27.6315 19.461 27.6315 24.1751C27.6315 28.5748 25.8229 31.1732 22.7565 31.1732V31.1756ZM22.9174 24.9746C24.4408 24.9746 25.8034 23.7949 25.8034 22.0984C25.8034 20.0704 24.5188 19.1003 22.9759 19.1003C21.5475 19.1003 20.1289 20.0436 20.1289 22.0496C20.1289 24.0411 21.4524 24.9746 22.9174 24.9746ZM15.7097 17.9303V30.927H14.0644V19.6901H14.0351C13.3282 20.0704 11.8828 20.9576 10.9688 21.5841V19.89C11.9946 19.1713 13.0634 18.516 14.1692 17.9278H15.7097V17.9303Z" fill="#976391"/>
</svg>
