<svg width="20" height="20" viewBox="0 0 20 20" fill="none" xmlns="http://www.w3.org/2000/svg">
<path fill-rule="evenodd" clip-rule="evenodd" d="M18.211 7.45978C13.6758 1.32252 6.32418 1.32252 1.78905 7.45978C1.58995 7.72001 1.32328 7.864 1.04649 7.86075C0.769699 7.85749 0.504925 7.70725 0.309197 7.44237C0.113468 7.1775 0.00244515 6.81919 3.99069e-05 6.44462C-0.00236534 6.07004 0.10404 5.70918 0.296337 5.43974C5.65489 -1.81325 14.3451 -1.81325 19.7037 5.43974C19.896 5.70918 20.0024 6.07004 20 6.44462C19.9976 6.81919 19.8865 7.1775 19.6908 7.44237C19.4951 7.70725 19.2303 7.85749 18.9535 7.86075C18.6767 7.864 18.4101 7.72001 18.211 7.45978ZM15.2255 11.4998C14.5393 10.5711 13.7247 9.83444 12.8281 9.33182C11.9315 8.8292 10.9705 8.5705 10 8.5705C9.02951 8.5705 8.06853 8.8292 7.17193 9.33182C6.27533 9.83444 5.46067 10.5711 4.77446 11.4998C4.57536 11.7601 4.3087 11.9041 4.03191 11.9008C3.75512 11.8976 3.49034 11.7473 3.29461 11.4824C3.09889 11.2176 2.98786 10.8593 2.98546 10.4847C2.98305 10.1101 3.08946 9.74925 3.28175 9.47981C4.164 8.28588 5.21139 7.3388 6.36411 6.69264C7.51683 6.04649 8.7523 5.71392 10 5.71392C11.2477 5.71392 12.4832 6.04649 13.6359 6.69264C14.7886 7.3388 15.836 8.28588 16.7182 9.47981C16.9105 9.74925 17.0169 10.1101 17.0145 10.4847C17.0121 10.8593 16.9011 11.2176 16.7054 11.4824C16.5097 11.7473 16.2449 11.8976 15.9681 11.9008C15.6913 11.9041 15.4246 11.7601 15.2255 11.4998ZM12.238 15.5428C11.6441 14.7393 10.8387 14.288 9.99894 14.288C9.15917 14.288 8.35378 14.7393 7.75988 15.5428C7.5618 15.8108 7.29313 15.9614 7.013 15.9614C6.73286 15.9614 6.4642 15.8108 6.26612 15.5428C6.06803 15.2747 5.95675 14.9111 5.95675 14.532C5.95675 14.1529 6.06803 13.7894 6.26612 13.5213C6.75627 12.8578 7.33821 12.3315 7.9787 11.9724C8.61918 11.6133 9.30567 11.4285 9.99894 11.4285C10.6922 11.4285 11.3787 11.6133 12.0192 11.9724C12.6597 12.3315 13.2416 12.8578 13.7318 13.5213C13.9299 13.7894 14.0411 14.1529 14.0411 14.532C14.0411 14.9111 13.9299 15.2747 13.7318 15.5428C13.5337 15.8108 13.265 15.9614 12.9849 15.9614C12.7048 15.9614 12.4361 15.8108 12.238 15.5428ZM8.94434 18.5714C8.94434 18.1925 9.05556 17.8291 9.25353 17.5612C9.45151 17.2933 9.72002 17.1428 10 17.1428H10.0106C10.2905 17.1428 10.559 17.2933 10.757 17.5612C10.955 17.8291 11.0662 18.1925 11.0662 18.5714C11.0662 18.9503 10.955 19.3137 10.757 19.5816C10.559 19.8495 10.2905 20 10.0106 20H10C9.72002 20 9.45151 19.8495 9.25353 19.5816C9.05556 19.3137 8.94434 18.9503 8.94434 18.5714Z" fill="black"/>
</svg>
