<svg width="145" height="36" viewBox="0 0 145 36" fill="none" xmlns="http://www.w3.org/2000/svg">
<path d="M36.1953 19.7695V21.1172C34.9583 22.276 33.9036 23.2135 33.0312 23.9297C32.1719 24.6328 31.3125 25.2708 30.4531 25.8438C29.5938 26.4036 28.8776 26.8008 28.3047 27.0352C27.7448 27.2826 27.263 27.4062 26.8594 27.4062C25.8958 27.4062 25.1081 27.0482 24.4961 26.332C23.8841 25.6159 23.5781 24.6914 23.5781 23.5586C23.5781 22.2565 23.8385 20.9674 24.3594 19.6914C24.8932 18.4154 25.6484 17.1003 26.625 15.7461C27.6016 14.3789 28.8255 12.849 30.2969 11.1562C31.3906 9.90625 31.9375 9.20312 31.9375 9.04688C31.9375 8.95573 31.9049 8.8776 31.8398 8.8125C31.7747 8.7474 31.7031 8.71484 31.625 8.71484C31.3776 8.71484 30.6159 9.26172 29.3398 10.3555C28.0638 11.4492 26.4232 13.0573 24.418 15.1797C22.4258 17.3021 20.2708 19.8281 17.9531 22.7578C17.8229 22.9141 17.4062 23.4479 16.7031 24.3594C16.013 25.2578 15.5247 25.8438 15.2383 26.1172C14.9518 26.3906 14.7044 26.5273 14.4961 26.5273C14.1315 26.5273 13.8125 26.1628 13.5391 25.4336C13.2786 24.6914 13.1484 23.9036 13.1484 23.0703C13.1484 22.5625 13.3112 22.0156 13.6367 21.4297C13.9753 20.8438 14.6979 19.7956 15.8047 18.2852C16.9245 16.7617 17.849 15.4792 18.5781 14.4375C19.3073 13.3958 20.1081 12.1328 20.9805 10.6484C21.5924 9.61979 22.0417 8.79948 22.3281 8.1875C22.6276 7.57552 22.7773 7.03516 22.7773 6.56641C22.7773 6.16276 22.6602 5.96094 22.4258 5.96094C21.931 5.96094 21 6.625 19.6328 7.95312C18.2656 9.26823 16.5729 11.2279 14.5547 13.832C12.5495 16.4362 10.4531 19.4505 8.26562 22.875C7.54948 24.0469 7.04167 24.8346 6.74219 25.2383C6.44271 25.6419 6.11068 25.8438 5.74609 25.8438C5.29036 25.8438 4.86068 25.362 4.45703 24.3984C4.06641 23.4219 3.87109 22.6341 3.87109 22.0352C3.87109 21.8398 3.94922 21.625 4.10547 21.3906C5.82422 19.099 7.23698 17.1523 8.34375 15.5508C9.45052 13.9492 10.4336 12.4323 11.293 11C12.1523 9.55469 12.7773 8.36979 13.168 7.44531C13.5586 6.50781 13.7539 5.77214 13.7539 5.23828C13.7539 4.67839 13.5 4.39844 12.9922 4.39844C12.5755 4.39844 11.8659 4.66536 10.8633 5.19922C9.86068 5.73307 8.59115 6.46224 7.05469 7.38672C5.53125 8.3112 4.30729 9.02083 3.38281 9.51562C2.45833 9.9974 1.76823 10.2383 1.3125 10.2383C0.882812 10.2383 0.667969 9.9974 0.667969 9.51562C0.667969 9.24219 0.759115 8.61719 0.941406 7.64062C1.1237 6.65104 1.3125 5.95443 1.50781 5.55078C1.78125 5.02995 2.47786 4.33984 3.59766 3.48047C4.73047 2.62109 5.35547 2.19141 5.47266 2.19141C5.57682 2.19141 5.62891 2.23698 5.62891 2.32812C5.62891 2.38021 5.57682 2.45833 5.47266 2.5625C4.9388 2.99219 4.54167 3.34375 4.28125 3.61719C4.02083 3.89062 3.85807 4.1901 3.79297 4.51562C6.17578 3.08333 8.30469 1.99609 10.1797 1.25391C12.0677 0.498698 13.3763 0.121094 14.1055 0.121094C14.4701 0.121094 14.8151 0.36849 15.1406 0.863281C15.4661 1.34505 15.7396 1.91146 15.9609 2.5625C16.1953 3.20052 16.3125 3.61068 16.3125 3.79297C16.3125 4.45703 16.1432 5.24479 15.8047 6.15625C15.4661 7.05469 15.0039 8.10286 14.418 9.30078C13.8451 10.4987 13.1289 11.9961 12.2695 13.793C12.9466 12.9206 13.5911 12.1133 14.2031 11.3711C14.8151 10.6289 15.4206 9.90625 16.0195 9.20312C16.6315 8.5 17.25 7.79036 17.875 7.07422C18.7214 6.09766 19.6719 5.16667 20.7266 4.28125C21.7812 3.38281 22.7643 2.65365 23.6758 2.09375C24.6003 1.52083 25.2253 1.23438 25.5508 1.23438C26.0065 1.23438 26.4102 1.48828 26.7617 1.99609C27.1263 2.49089 27.3086 3.02474 27.3086 3.59766C27.3086 3.97526 27.0612 4.69792 26.5664 5.76562C26.0716 6.83333 25.349 8.20052 24.3984 9.86719C23.4479 11.5339 22.1914 13.6823 20.6289 16.3125C22.1133 14.737 23.6562 13.1159 25.2578 11.4492C26.8594 9.78255 28.0508 8.5651 28.832 7.79688C29.6133 7.02865 30.2643 6.44271 30.7852 6.03906C31.5013 5.49219 32.2174 4.90625 32.9336 4.28125C33.6628 3.64323 34.2357 3.14193 34.6523 2.77734C35.069 2.41276 35.4401 2.13281 35.7656 1.9375C36.0911 1.74219 36.3906 1.64453 36.6641 1.64453C37.0026 1.64453 37.4258 2.03516 37.9336 2.81641C38.4544 3.59766 38.7148 4.09896 38.7148 4.32031C38.7148 4.59375 38.5586 4.91927 38.2461 5.29688C37.9466 5.67448 37.3151 6.3776 36.3516 7.40625C34.5807 9.30729 33.0443 11.2279 31.7422 13.168C30.4401 15.0951 29.4505 16.8594 28.7734 18.4609C28.1094 20.0495 27.7773 21.306 27.7773 22.2305C27.7773 22.8034 27.8815 23.2201 28.0898 23.4805C28.3112 23.7409 28.6497 23.8711 29.1055 23.8711C29.5221 23.8711 29.9062 23.793 30.2578 23.6367C30.6224 23.4805 31.0195 23.2591 31.4492 22.9727C31.8919 22.6862 32.3086 22.4128 32.6992 22.1523C33.2461 21.8268 33.7799 21.4818 34.3008 21.1172C34.8346 20.7396 35.2448 20.4466 35.5312 20.2383C35.8307 20.0169 36.0521 19.8607 36.1953 19.7695ZM56.2734 20.3555C55.9479 19.7565 55.4596 19.2161 54.8086 18.7344C54.1576 18.2526 53.4219 17.8685 52.6016 17.582C51.7943 17.2826 50.9479 17.0612 50.0625 16.918C47.4323 16.5273 44.9779 15.6745 42.6992 14.3594C42.5039 14.2552 42.2956 14.0339 42.0742 13.6953C41.8529 13.3568 41.7422 13.0312 41.7422 12.7188C41.7422 11.5729 41.931 10.4271 42.3086 9.28125C42.6992 8.1224 43.194 7.21745 43.793 6.56641C44.7565 5.48568 46.4883 4.54167 48.9883 3.73438C51.5013 2.92708 54.3268 2.52344 57.4648 2.52344C59.3398 2.52344 60.7852 2.66667 61.8008 2.95312C62.8294 3.23958 63.3438 3.68229 63.3438 4.28125C63.3438 5.25781 63.207 6.01302 62.9336 6.54688C62.6732 7.08073 62.3867 7.4388 62.0742 7.62109C61.7747 7.79036 61.2409 8.02474 60.4727 8.32422C59.6523 8.61068 58.9362 8.91016 58.3242 9.22266C57.7253 9.53516 57.2109 9.83464 56.7812 10.1211C56.3516 10.4076 56.0846 10.5508 55.9805 10.5508C55.8503 10.5508 55.7852 10.4987 55.7852 10.3945C55.7852 10.1732 56.013 9.84115 56.4688 9.39844C56.9375 8.94271 57.5104 8.54557 58.1875 8.20703C58.9036 7.82943 59.2617 7.58854 59.2617 7.48438C59.2617 7.3151 58.8646 7.23047 58.0703 7.23047C55.6615 7.23047 53.4349 7.44531 51.3906 7.875C49.3464 8.30469 47.7318 8.87109 46.5469 9.57422C45.375 10.2773 44.7891 10.9935 44.7891 11.7227C44.7891 12.1784 45.0299 12.5039 45.5117 12.6992C46.0065 12.8815 47.0872 13.194 48.7539 13.6367C50.4206 14.0794 51.9115 14.5872 53.2266 15.1602C55.1146 15.9674 56.5143 16.8073 57.4258 17.6797C58.3372 18.5521 58.793 19.5286 58.793 20.6094C58.793 21.3516 58.6107 22.1003 58.2461 22.8555C57.8945 23.5977 57.3737 24.2812 56.6836 24.9062C55.9935 25.5312 55.1992 26.0456 54.3008 26.4492C53.5326 26.7747 52.5625 27.0807 51.3906 27.3672C50.2318 27.6536 48.9688 27.875 47.6016 28.0312C46.2474 28.2005 44.9518 28.2852 43.7148 28.2852C41.4362 28.2852 39.6003 28.0703 38.207 27.6406C36.8268 27.2109 36.1367 26.5599 36.1367 25.6875C36.1367 25.2969 36.3711 24.6914 36.8398 23.8711C37.3086 23.0378 37.862 22.4779 38.5 22.1914C39.0599 21.9701 39.6003 21.8464 40.1211 21.8203C40.6419 21.7812 40.9023 21.8398 40.9023 21.9961C40.9023 22.0352 40.8828 22.0742 40.8438 22.1133C40.8047 22.1523 40.7591 22.1849 40.707 22.2109C40.6549 22.237 40.6029 22.263 40.5508 22.2891C40.2904 22.3932 40.0755 22.4779 39.9062 22.543C39.75 22.5951 39.6198 22.6536 39.5156 22.7188C39.4245 22.7708 39.3789 22.849 39.3789 22.9531C39.3789 23.2266 40.7266 23.3633 43.4219 23.3633C45.7656 23.3633 47.6862 23.2786 49.1836 23.1094C50.681 22.9401 52.0026 22.6341 53.1484 22.1914C54.2943 21.7487 55.3359 21.1367 56.2734 20.3555ZM65.043 20.5508V21.0391C65.043 21.8073 65.2318 22.4062 65.6094 22.8359C65.987 23.2656 66.4818 23.4805 67.0938 23.4805C67.7318 23.4805 68.3893 23.3307 69.0664 23.0312C69.7565 22.7318 70.4401 22.3346 71.1172 21.8398C71.7943 21.3451 72.6211 20.681 73.5977 19.8477V21.0391C72.1263 22.8099 70.7461 24.1706 69.457 25.1211C68.168 26.0586 66.8594 26.5273 65.5312 26.5273C64.3724 26.5273 63.4544 26.0781 62.7773 25.1797C62.1003 24.2812 61.7617 23.0508 61.7617 21.4883C61.7617 20.1211 62.0807 18.8841 62.7188 17.7773C63.3568 16.6576 64.3984 15.4792 65.8438 14.2422C66.8333 13.3958 67.8164 12.7578 68.793 12.3281C69.7695 11.8984 70.6419 11.6836 71.4102 11.6836C72.0221 11.6836 72.5039 11.8268 72.8555 12.1133C73.2201 12.3867 73.4023 12.8034 73.4023 13.3633C73.4023 14.1836 73.0964 15.0039 72.4844 15.8242C71.8724 16.6315 70.9349 17.4388 69.6719 18.2461C68.4219 19.0404 66.8789 19.8086 65.043 20.5508ZM65.2383 19.2812C66.4102 18.8255 67.4128 18.2591 68.2461 17.582C69.0794 16.9049 69.6914 16.2604 70.082 15.6484C70.4857 15.0234 70.6875 14.5677 70.6875 14.2812C70.6875 13.9818 70.5508 13.832 70.2773 13.832C70.043 13.832 69.6589 13.9818 69.125 14.2812C68.6042 14.5807 68.0703 14.9714 67.5234 15.4531C66.9896 15.9349 66.5078 16.5013 66.0781 17.1523C65.6484 17.8034 65.3685 18.513 65.2383 19.2812ZM86.7617 16.3125C84.4701 18.8646 83.3242 20.6419 83.3242 21.6445C83.3242 22.2044 83.5521 22.4844 84.0078 22.4844C84.3854 22.4844 84.8737 22.2891 85.4727 21.8984C86.0846 21.4948 87.0352 20.7852 88.3242 19.7695V21.1172C86.4753 22.9401 85.056 24.2552 84.0664 25.0625C83.0768 25.8698 82.2695 26.2734 81.6445 26.2734C80.5768 26.2734 80.043 25.5703 80.043 24.1641C80.043 23.7474 80.1081 23.3372 80.2383 22.9336C80.3685 22.5299 80.5443 22.1133 80.7656 21.6836C81 21.2409 81.3516 20.6159 81.8203 19.8086C82.2891 18.9883 82.8294 18.0638 83.4414 17.0352C82.6992 17.4128 81.7682 18.1615 80.6484 19.2812C79.9193 19.9844 79.3008 20.6549 78.793 21.293C78.2852 21.918 77.7383 22.6211 77.1523 23.4023C76.5794 24.1706 76.1562 24.6914 75.8828 24.9648C75.6224 25.2253 75.3555 25.3555 75.082 25.3555C74.6654 25.3555 74.2812 24.9193 73.9297 24.0469C73.5781 23.1745 73.4023 22.1589 73.4023 21C73.4023 20.2839 73.4805 19.724 73.6367 19.3203C73.806 18.9167 74.1315 18.3438 74.6133 17.6016C75.5117 16.2214 76.2865 15.2122 76.9375 14.5742C77.5885 13.9232 78.2135 13.5977 78.8125 13.5977C79.2292 13.5977 79.5612 13.6693 79.8086 13.8125C80.069 13.9557 80.1992 14.1771 80.1992 14.4766C80.1992 14.6068 80.1602 14.7435 80.082 14.8867C80.0039 15.0299 79.9128 15.1602 79.8086 15.2773C79.7174 15.3945 79.5156 15.6224 79.2031 15.9609C77.1458 18.2396 76.1172 19.7174 76.1172 20.3945C76.1172 20.7721 76.2409 20.9609 76.4883 20.9609C76.6445 20.9609 76.944 20.7135 77.3867 20.2188C77.8424 19.7109 78.4219 19.0534 79.125 18.2461C79.8411 17.4258 80.681 16.5729 81.6445 15.6875C82.6211 14.8021 83.7279 13.9492 84.9648 13.1289C85.6549 12.6471 86.2279 12.4062 86.6836 12.4062C86.8919 12.4062 87.0938 12.6927 87.2891 13.2656C87.4974 13.8385 87.6016 14.418 87.6016 15.0039C87.6016 15.2904 87.3216 15.7266 86.7617 16.3125ZM103.734 21.1562L97.25 26.4883C95.4271 29.6393 93.7669 31.9896 92.2695 33.5391C90.7721 35.1016 89.6589 35.8828 88.9297 35.8828C88.5391 35.8828 88.3438 35.6419 88.3438 35.1602C88.3438 34.2227 88.819 33.0247 89.7695 31.5664C90.1471 30.9935 90.5768 30.4336 91.0586 29.8867C91.5534 29.3398 92.0156 28.8646 92.4453 28.4609C92.888 28.0703 93.4674 27.5755 94.1836 26.9766C94.8997 26.3906 95.388 25.987 95.6484 25.7656C96.9505 23.1094 97.888 21.0781 98.4609 19.6719C97.237 20.974 96.1693 22.0417 95.2578 22.875C94.3464 23.7083 93.5065 24.3529 92.7383 24.8086C91.9831 25.2513 91.2995 25.4727 90.6875 25.4727C90.0234 25.4727 89.4115 24.9453 88.8516 23.8906C88.2917 22.8229 88.0117 21.7292 88.0117 20.6094C88.0117 20.0885 88.1289 19.5417 88.3633 18.9688C88.6107 18.3958 88.9883 17.7839 89.4961 17.1328C90.0169 16.4818 90.6745 15.8177 91.4688 15.1406C92.263 14.4505 93.194 13.7799 94.2617 13.1289C96.2799 11.8659 97.849 11.2344 98.9688 11.2344C99.8021 11.2344 100.219 11.5404 100.219 12.1523C100.219 12.9987 99.3138 13.8255 97.5039 14.6328C96.3971 15.1146 95.2969 15.7526 94.2031 16.5469C93.1224 17.3411 92.2435 18.1875 91.5664 19.0859C90.9023 19.9714 90.5703 20.7721 90.5703 21.4883C90.5703 21.8398 90.6549 22.1198 90.8242 22.3281C90.9935 22.5365 91.2148 22.6406 91.4883 22.6406C91.944 22.6406 92.4648 22.4323 93.0508 22.0156C93.6367 21.599 94.5026 20.8633 95.6484 19.8086C96.1693 19.3268 96.8594 18.5521 97.7188 17.4844C98.5911 16.4036 99.3073 15.5833 99.8672 15.0234C100.44 14.4505 100.954 14.1641 101.41 14.1641C101.671 14.1641 101.879 14.2487 102.035 14.418C102.204 14.5742 102.289 14.8086 102.289 15.1211C102.289 15.7201 102.048 16.5924 101.566 17.7383C101.098 18.8711 100.245 20.7331 99.0078 23.3242L103.734 19.8867V21.1562ZM118.324 19.8477V21.1562C116.866 22.862 115.642 24.1576 114.652 25.043C113.663 25.9154 112.836 26.3516 112.172 26.3516C111.534 26.3516 110.954 26.1628 110.434 25.7852C109.926 25.4076 109.464 24.8867 109.047 24.2227C108.643 23.5586 108.161 22.6341 107.602 21.4492C106.938 22.2695 106.339 23.0378 105.805 23.7539C105.271 24.457 104.9 24.9258 104.691 25.1602C104.483 25.3945 104.294 25.5117 104.125 25.5117C103.773 25.5117 103.52 25.2904 103.363 24.8477C103.207 24.3919 103.129 23.7344 103.129 22.875C103.129 21.7031 103.266 20.5768 103.539 19.4961C103.826 18.4023 104.229 17.3411 104.75 16.3125C105.284 15.2839 105.961 14.1771 106.781 12.9922C107.615 11.7943 108.546 10.5443 109.574 9.24219C110.993 7.44531 112.217 5.98047 113.246 4.84766C114.275 3.70182 115.167 2.84245 115.922 2.26953C116.69 1.68359 117.328 1.39062 117.836 1.39062C118.461 1.39062 118.773 1.67057 118.773 2.23047C118.773 2.71224 117.621 4.45052 115.316 7.44531C113.012 10.4271 109.652 14.5026 105.238 19.6719V21.3516C108.194 18.1875 110.57 15.8372 112.367 14.3008C114.177 12.7643 115.577 11.9961 116.566 11.9961C116.97 11.9961 117.283 12.237 117.504 12.7188C117.725 13.1875 117.836 13.7344 117.836 14.3594C117.836 15.6354 117.289 16.8203 116.195 17.9141C115.102 18.9948 113.422 20.2383 111.156 21.6445C111.547 22.2305 111.892 22.6602 112.191 22.9336C112.491 23.194 112.868 23.3242 113.324 23.3242C113.728 23.3242 114.164 23.1875 114.633 22.9141C115.102 22.6406 115.577 22.2956 116.059 21.8789C116.553 21.4622 117.309 20.7852 118.324 19.8477ZM110.609 20.8438C111.104 20.5182 111.716 20.0169 112.445 19.3398C113.188 18.6497 113.819 17.9401 114.34 17.2109C114.861 16.4688 115.121 15.8503 115.121 15.3555C115.121 15.1471 115.03 15.043 114.848 15.043C114.353 15.043 113.5 15.5182 112.289 16.4688C111.091 17.4193 109.919 18.6367 108.773 20.1211C109.268 20.1211 109.88 20.362 110.609 20.8438ZM121.332 20.5508V21.0391C121.332 21.8073 121.521 22.4062 121.898 22.8359C122.276 23.2656 122.771 23.4805 123.383 23.4805C124.021 23.4805 124.678 23.3307 125.355 23.0312C126.046 22.7318 126.729 22.3346 127.406 21.8398C128.083 21.3451 128.91 20.681 129.887 19.8477V21.0391C128.415 22.8099 127.035 24.1706 125.746 25.1211C124.457 26.0586 123.148 26.5273 121.82 26.5273C120.661 26.5273 119.743 26.0781 119.066 25.1797C118.389 24.2812 118.051 23.0508 118.051 21.4883C118.051 20.1211 118.37 18.8841 119.008 17.7773C119.646 16.6576 120.688 15.4792 122.133 14.2422C123.122 13.3958 124.105 12.7578 125.082 12.3281C126.059 11.8984 126.931 11.6836 127.699 11.6836C128.311 11.6836 128.793 11.8268 129.145 12.1133C129.509 12.3867 129.691 12.8034 129.691 13.3633C129.691 14.1836 129.385 15.0039 128.773 15.8242C128.161 16.6315 127.224 17.4388 125.961 18.2461C124.711 19.0404 123.168 19.8086 121.332 20.5508ZM121.527 19.2812C122.699 18.8255 123.702 18.2591 124.535 17.582C125.368 16.9049 125.98 16.2604 126.371 15.6484C126.775 15.0234 126.977 14.5677 126.977 14.2812C126.977 13.9818 126.84 13.832 126.566 13.832C126.332 13.832 125.948 13.9818 125.414 14.2812C124.893 14.5807 124.359 14.9714 123.812 15.4531C123.279 15.9349 122.797 16.5013 122.367 17.1523C121.938 17.8034 121.658 18.513 121.527 19.2812ZM138.891 20.6094L135.414 23.5586C133.76 25.0039 132.654 25.7266 132.094 25.7266C131.586 25.7266 131.052 25.1471 130.492 23.9883C129.932 22.8164 129.652 21.7943 129.652 20.9219C129.652 20.1797 129.763 19.5547 129.984 19.0469C130.219 18.526 130.616 17.8555 131.176 17.0352C131.97 15.9284 132.732 14.9909 133.461 14.2227C134.19 13.4544 134.835 12.862 135.395 12.4453C135.954 12.0156 136.345 11.8008 136.566 11.8008C136.918 11.8008 137.257 11.9831 137.582 12.3477C137.921 12.7122 138.09 13.0898 138.09 13.4805C138.09 13.7279 137.908 14.125 137.543 14.6719C137.191 15.2188 136.625 15.9154 135.844 16.7617C135.076 17.5951 134.001 18.5977 132.621 19.7695L132.25 20.8438C132.146 21.0521 132.094 21.2344 132.094 21.3906C132.094 21.7422 132.27 21.918 132.621 21.918C132.986 21.918 133.839 21.4557 135.18 20.5312C136.534 19.6068 137.999 18.3633 139.574 16.8008C140.186 16.1888 140.694 15.6484 141.098 15.1797C141.501 14.7109 141.866 14.2747 142.191 13.8711C142.517 13.4544 142.784 13.1419 142.992 12.9336C143.214 12.7253 143.409 12.6146 143.578 12.6016C143.904 12.5625 144.158 12.6992 144.34 13.0117C144.522 13.3242 144.613 13.7865 144.613 14.3984C144.613 14.75 144.457 15.1927 144.145 15.7266C143.832 16.2474 143.246 17.1458 142.387 18.4219C141.527 19.6849 140.668 21 139.809 22.3672C138.962 23.7214 138.096 25.2513 137.211 26.957C137.25 26.918 137.647 26.5273 138.402 25.7852C139.171 25.043 139.978 24.2682 140.824 23.4609C141.671 22.6536 142.367 22.0091 142.914 21.5273C143.461 21.0326 144.145 20.4596 144.965 19.8086V21.1172C143.207 23.0052 141.612 24.7956 140.18 26.4883C138.76 28.181 137.66 29.5352 136.879 30.5508C136.111 31.5664 135.661 32.1589 135.531 32.3281C135.18 32.7839 134.861 33.207 134.574 33.5977C134.301 34.0013 134.066 34.3073 133.871 34.5156C133.689 34.737 133.539 34.8477 133.422 34.8477C133.148 34.8477 132.901 34.5742 132.68 34.0273C132.471 33.4935 132.367 33.0182 132.367 32.6016C132.367 32.224 132.439 31.8919 132.582 31.6055C133.52 29.4961 135.622 25.8307 138.891 20.6094Z" fill="white"/>
</svg>
